# Blender 4.0.2
# www.blender.org
o hex_tile
v 0.000000 0.000000 -0.119596
v 0.000000 0.004635 -0.124949
v 0.000000 0.024335 -0.119596
v 0.000000 0.019700 -0.124949
v 0.103573 0.000000 -0.059798
v 0.108209 0.004635 -0.062474
v 0.103573 0.024335 -0.059798
v 0.108209 0.019700 -0.062474
v 0.103573 0.000000 0.059798
v 0.108209 0.004635 0.062474
v 0.103573 0.024335 0.059798
v 0.108209 0.019700 0.062474
v -0.000000 0.000000 0.119596
v -0.000000 0.004635 0.124949
v -0.000000 0.024335 0.119596
v -0.000000 0.019700 0.124949
v -0.103573 0.000000 0.059798
v -0.108209 0.004635 0.062474
v -0.103573 0.024335 0.059798
v -0.108209 0.019700 0.062474
v -0.103573 0.000000 -0.059798
v -0.108209 0.004635 -0.062474
v -0.103573 0.024335 -0.059798
v -0.108209 0.019700 -0.062474
vn -0.5000 -0.0000 -0.8660
vn 0.5000 -0.0000 0.8660
vn -0.5000 -0.0000 0.8660
vn -1.0000 -0.0000 -0.0000
vn 1.0000 -0.0000 -0.0000
vn -0.0000 1.0000 -0.0000
vn 0.5000 -0.0000 -0.8660
vn 0.3536 -0.7071 -0.6124
vn 0.3536 0.7071 -0.6124
vn 0.7071 -0.7071 -0.0000
vn 0.7071 0.7071 -0.0000
vn 0.3536 -0.7071 0.6124
vn 0.3536 0.7071 0.6124
vn -0.3536 -0.7071 0.6124
vn -0.3536 0.7071 0.6124
vn -0.7071 -0.7071 -0.0000
vn -0.7071 0.7071 -0.0000
vn -0.3536 -0.7071 -0.6124
vn -0.3536 0.7071 -0.6124
vn -0.0000 -1.0000 -0.0000
vt 0.829941 0.035266
vt 0.829941 0.014872
vt 0.995476 0.014872
vt 0.995476 0.035266
vt 0.333337 0.035266
vt 0.333337 0.014872
vt 0.498871 0.014872
vt 0.498871 0.035266
vt 0.664406 0.014872
vt 0.664406 0.035266
vt 0.167802 0.035266
vt 0.167802 0.014872
vt 0.443881 0.383993
vt 0.301900 0.302020
vt 0.301900 0.138075
vt 0.443881 0.056102
vt 0.585861 0.138075
vt 0.585861 0.302020
vt 0.002267 0.035266
vt 0.002267 0.014872
vt 0.167802 0.044852
vt 0.002267 0.044852
vt 0.002267 0.005286
vt 0.167802 0.005286
vt 0.333337 0.044852
vt 0.333337 0.005286
vt 0.498871 0.044852
vt 0.498871 0.005286
vt 0.664406 0.044852
vt 0.664406 0.005286
vt 0.829941 0.044852
vt 0.829941 0.005286
vt 0.995476 0.044852
vt 0.995476 0.005286
vt 0.295108 0.302020
vt 0.153128 0.383993
vt 0.011147 0.302020
vt 0.011147 0.138075
vt 0.153128 0.056102
vt 0.295108 0.138075
s 0
f 22/1/1 24/2/1 4/3/1 2/4/1
f 10/5/2 12/6/2 16/7/2 14/8/2
f 14/8/3 16/7/3 20/9/3 18/10/3
f 18/10/4 20/9/4 24/2/4 22/1/4
f 6/11/5 8/12/5 12/6/5 10/5/5
f 7/13/6 3/14/6 23/15/6 19/16/6 15/17/6 11/18/6
f 2/19/7 4/20/7 8/12/7 6/11/7
f 2/19/8 6/11/8 5/21/8 1/22/8
f 8/12/9 4/20/9 3/23/9 7/24/9
f 6/11/10 10/5/10 9/25/10 5/21/10
f 12/6/11 8/12/11 7/24/11 11/26/11
f 10/5/12 14/8/12 13/27/12 9/25/12
f 16/7/13 12/6/13 11/26/13 15/28/13
f 14/8/14 18/10/14 17/29/14 13/27/14
f 20/9/15 16/7/15 15/28/15 19/30/15
f 18/10/16 22/1/16 21/31/16 17/29/16
f 24/2/17 20/9/17 19/30/17 23/32/17
f 22/1/18 2/4/18 1/33/18 21/31/18
f 4/3/19 24/2/19 23/32/19 3/34/19
f 1/35/20 5/36/20 9/37/20 13/38/20 17/39/20 21/40/20
