# Blender 4.0.2
# www.blender.org
o oil_burner_01
v -0.051162 0.012717 -0.051162
v -0.035595 0.110070 -0.035595
v 0.000000 0.083805 0.039767
v -0.032787 0.043506 0.046223
v -0.027842 0.062826 0.043128
v -0.011811 0.081218 0.040182
v -0.021823 0.073851 0.041362
v 0.000000 0.012717 -0.051162
v 0.000000 0.110070 -0.035595
v 0.000000 0.015495 0.050710
v -0.039800 0.083748 0.039777
v -0.046111 0.044299 0.046096
v -0.043054 0.063390 0.043038
v -0.046083 0.044482 -0.046083
v -0.043048 0.063457 -0.043048
v 0.000000 0.063457 -0.043048
v 0.000000 0.044482 -0.046083
v 0.000000 0.043471 -0.038994
v 0.000000 0.063290 -0.035673
v 0.000000 0.015497 -0.043682
v -0.021823 0.073825 0.034579
v -0.027842 0.062808 0.036386
v -0.032787 0.043503 0.039553
v 0.000000 0.083772 0.032948
v -0.011811 0.081187 0.033372
v -0.044693 0.015497 -0.043682
v -0.039927 0.043527 -0.038981
v -0.036377 0.063068 -0.035667
v -0.029512 0.103537 -0.028928
v 0.000000 0.103537 -0.028928
v -0.036377 0.063068 0.036386
v -0.039927 0.043523 0.039553
v -0.029512 0.103559 0.029702
v 0.000000 0.103559 0.029702
v -0.044693 0.015513 0.044144
v -0.032945 0.083184 0.033044
v -0.032945 0.083432 -0.032298
v 0.000000 0.083414 -0.032301
v 0.000000 0.083773 -0.039800
v -0.039800 0.083773 -0.039800
v -0.028463 0.015495 0.050710
v -0.035947 0.025392 0.049124
v -0.051162 0.012715 0.051155
v -0.034438 0.018394 0.050245
v -0.035946 0.025410 0.042521
v -0.028463 0.015509 0.044144
v -0.034438 0.018410 0.043664
v 0.051162 0.012717 -0.051162
v 0.035595 0.110070 -0.035595
v 0.032787 0.043506 0.046223
v 0.027842 0.062826 0.043128
v 0.011811 0.081218 0.040182
v 0.021823 0.073851 0.041362
v 0.039800 0.083748 0.039777
v 0.046111 0.044299 0.046096
v 0.043054 0.063390 0.043038
v 0.046083 0.044482 -0.046083
v 0.043048 0.063457 -0.043048
v 0.021823 0.073825 0.034579
v 0.027842 0.062808 0.036386
v 0.032787 0.043503 0.039553
v 0.011811 0.081187 0.033372
v 0.044693 0.015497 -0.043682
v 0.039927 0.043527 -0.038981
v 0.036377 0.063068 -0.035667
v 0.029512 0.103537 -0.028928
v 0.036377 0.063068 0.036386
v 0.039927 0.043523 0.039553
v 0.000000 0.025495 -0.049119
v -0.049119 0.025495 -0.049119
v -0.049132 0.025407 0.049122
v 0.029512 0.103559 0.029702
v 0.044693 0.015513 0.044144
v 0.032945 0.083184 0.033044
v -0.035619 0.119106 0.035619
v -0.035619 0.119106 -0.035619
v 0.032945 0.083432 -0.032298
v -0.035595 0.110070 0.035595
v 0.039800 0.083773 -0.039800
v -0.037526 0.112140 0.037526
v -0.037534 0.117036 0.037534
v -0.037526 0.112140 -0.037526
v -0.037534 0.117036 -0.037534
v 0.028463 0.015495 0.050710
v 0.035947 0.025392 0.049124
v 0.051162 0.012715 0.051155
v 0.034438 0.018394 0.050245
v -0.038042 0.114588 0.038042
v -0.038042 0.114588 -0.038042
v 0.035946 0.025410 0.042521
v 0.028463 0.015509 0.044144
v -0.054844 0.140825 0.054844
v -0.047421 0.149535 0.047421
v -0.054910 0.149535 0.054910
v -0.054844 0.140825 -0.054844
v -0.047421 0.149535 -0.047421
v -0.054910 0.149535 -0.054910
v 0.034438 0.018410 0.043664
v 0.049119 0.025495 -0.049119
v 0.049132 0.025407 0.049122
v 0.035619 0.119106 0.035619
v 0.035619 0.119106 -0.035619
v -0.028869 0.130475 0.028869
v -0.028869 0.130475 -0.028869
v 0.035595 0.110070 0.035595
v 0.037526 0.112140 0.037526
v -0.055152 -0.000000 -0.055197
v -0.054073 0.010164 -0.054206
v 0.037534 0.117036 0.037534
v 0.037526 0.112140 -0.037526
v -0.055152 0.000000 0.055108
v -0.054073 0.010164 0.053939
v 0.037534 0.117036 -0.037534
v 0.038042 0.114588 0.038042
v 0.000000 0.012717 0.051162
v 0.000000 0.000000 0.055108
v 0.000000 0.149535 0.047421
v 0.000000 -0.000000 -0.055197
v 0.000000 0.149535 -0.047421
v 0.000000 0.010164 0.053939
v 0.000000 0.110070 0.035595
v 0.000000 0.010164 -0.054206
v 0.000000 0.140825 0.054844
v 0.000000 0.119106 0.035619
v 0.000000 0.140825 -0.054844
v 0.000000 0.119106 -0.035619
v 0.000000 0.114588 -0.038042
v 0.000000 0.149535 -0.054910
v 0.000000 0.114588 0.038042
v 0.000000 0.149535 0.054910
v 0.000000 0.130475 0.028869
v 0.000000 0.130475 -0.028869
v 0.000000 0.112140 -0.037526
v 0.000000 0.112140 0.037526
v 0.000000 0.117036 0.037534
v 0.000000 0.117036 -0.037534
v -0.028463 0.012717 0.051162
v -0.028900 0.000000 0.055108
v -0.028747 0.010164 0.053939
v 0.038042 0.114588 -0.038042
v 0.054844 0.140825 0.054844
v 0.047421 0.149535 0.047421
v -0.028900 -0.000000 -0.026069
v 0.000000 -0.000000 -0.026069
v 0.054910 0.149535 0.054910
v 0.054844 0.140825 -0.054844
v 0.047421 0.149535 -0.047421
v 0.054910 0.149535 -0.054910
v 0.028869 0.130475 0.028869
v 0.028869 0.130475 -0.028869
v 0.055152 -0.000000 -0.055197
v 0.054073 0.010164 -0.054206
v 0.055152 0.000000 0.055108
v 0.054073 0.010164 0.053939
v 0.028463 0.012717 0.051162
v 0.028900 0.000000 0.055108
v 0.028747 0.010164 0.053939
v 0.028900 -0.000000 -0.026069
vn -0.0000 1.0000 0.0002
vn -0.0000 1.0000 -0.0001
vn 0.1153 0.9933 0.0006
vn 0.2190 0.9757 0.0011
vn -0.9875 0.1579 -0.0000
vn -0.9875 0.1578 -0.0000
vn 0.9785 -0.2064 0.0001
vn 0.9992 0.0394 0.0003
vn 1.0000 -0.0003 0.0002
vn 0.9768 -0.2140 0.0002
vn 0.9859 -0.1672 -0.0003
vn -0.0000 0.1579 -0.9875
vn -0.9874 0.1580 -0.0000
vn -0.9874 0.1579 -0.0000
vn 0.7635 -0.6458 0.0024
vn 0.9346 -0.3557 0.0009
vn 0.9261 -0.3774 0.0010
vn 0.7420 -0.6704 0.0026
vn -0.0000 0.1582 0.9874
vn -0.0000 -1.0000 0.0004
vn 0.0003 -0.1658 0.9862
vn -0.0000 -0.1658 0.9862
vn -0.0000 -0.1653 0.9862
vn 0.0006 -0.1654 0.9862
vn 0.4200 -0.9075 0.0040
vn 0.4043 -0.9146 0.0041
vn -0.0000 -1.0000 0.0047
vn -0.0012 -0.1622 -0.9868
vn -0.0026 -0.1616 -0.9869
vn -0.0027 -0.1613 -0.9869
vn -0.0008 -0.1621 -0.9868
vn 0.9848 -0.1736 -0.0001
vn 0.9850 -0.1726 -0.0000
vn -0.0000 -0.1648 0.9863
vn 0.0003 -0.1647 0.9863
vn 0.9858 -0.1677 -0.0000
vn -0.0000 -0.1619 -0.9868
vn -0.0017 -0.1609 -0.9870
vn -0.0014 -0.1611 -0.9869
vn 0.0001 1.0000 -0.0002
vn -0.0000 0.1576 0.9875
vn -0.0001 0.1576 0.9875
vn -0.0000 0.1570 0.9876
vn -0.0000 0.1571 0.9876
vn -0.0000 0.1584 0.9874
vn -0.0001 0.1600 0.9871
vn -0.0001 0.1599 0.9871
vn -0.0001 0.1588 0.9873
vn 0.0001 0.1588 0.9873
vn 0.0001 0.1599 0.9871
vn 0.0001 0.1600 0.9871
vn 0.7635 0.6459 0.0016
vn 0.8078 0.5895 0.0015
vn 0.0004 -0.1621 -0.9868
vn 0.0003 -0.1618 -0.9868
vn 0.0003 -0.1620 -0.9868
vn 0.0008 -0.1621 -0.9868
vn 0.0012 -0.1622 -0.9868
vn -0.0000 -1.0000 -0.0000
vn -0.0006 -0.1654 0.9862
vn -0.0003 -0.1647 0.9863
vn 0.0026 -0.1616 -0.9869
vn 0.0027 -0.1613 -0.9869
vn 0.0014 -0.1611 -0.9869
vn 0.0017 -0.1609 -0.9870
vn -0.9785 -0.2064 0.0001
vn -0.9768 -0.2140 0.0002
vn -1.0000 -0.0003 0.0002
vn -0.9992 0.0394 0.0003
vn -0.2190 0.9757 0.0011
vn -0.1153 0.9933 0.0006
vn -0.4200 -0.9075 0.0040
vn -0.4043 -0.9146 0.0041
vn -0.7420 -0.6704 0.0026
vn -0.7635 -0.6458 0.0024
vn 0.9875 0.1579 -0.0000
vn 0.9874 0.1580 -0.0000
vn 0.9874 0.1579 -0.0000
vn -0.9346 -0.3557 0.0009
vn -0.9261 -0.3774 0.0010
vn -0.9848 -0.1736 -0.0001
vn -0.9850 -0.1726 -0.0000
vn -0.0003 -0.1658 0.9862
vn -0.9859 -0.1672 -0.0003
vn -0.9858 -0.1677 -0.0000
vn 0.9875 0.1578 -0.0000
vn -0.0000 0.4578 0.8891
vn -0.0000 0.3848 0.9230
vn -0.0000 0.6791 0.7340
vn -0.0000 0.1608 0.9870
vn 0.0001 0.1576 0.9875
vn -0.0001 1.0000 -0.0002
vn -0.8078 0.5895 0.0015
vn -0.7635 0.6459 0.0016
vn -0.0000 -0.6821 -0.7313
vn -0.0000 -0.4610 -0.8874
vn -0.0000 -0.3876 -0.9218
vn -0.0000 -0.6628 0.7488
vn 1.0000 -0.0014 -0.0000
vn 0.9230 0.3848 -0.0000
vn 0.6593 0.7519 -0.0000
vn -0.0000 -0.4610 0.8874
vn -0.0000 -0.3876 0.9218
vn -0.0000 -0.0014 1.0000
vn -0.0000 -0.0017 1.0000
vn -0.0000 0.0970 -0.9953
vn -0.0000 -0.6821 0.7313
vn -0.0000 1.0000 -0.0000
vn -0.0000 0.7362 0.6767
vn 0.0001 0.7365 0.6764
vn 0.0001 0.7365 0.6765
vn -0.0000 -0.0075 1.0000
vn -0.0000 0.6975 -0.7166
vn 0.0001 0.7368 0.6761
vn -0.0000 0.6975 0.7166
vn -0.9230 0.3848 -0.0000
vn -0.7340 0.6791 -0.0000
vn 0.7166 0.6975 -0.0000
vn -0.0001 0.7365 0.6765
vn -0.0001 0.7368 0.6761
vn -0.0001 0.7365 0.6764
vn -0.0000 0.1143 0.9935
vn -0.0000 -0.0075 -1.0000
vn 0.7340 0.6791 -0.0000
vn -0.0000 0.7662 -0.6426
vn 1.0000 -0.0075 -0.0000
vn 0.9944 0.1056 -0.0000
vn 0.9218 -0.3876 -0.0000
vn -0.7166 0.6975 -0.0000
vn -0.9218 -0.3876 -0.0000
vn -1.0000 -0.0014 -0.0000
vn -1.0000 -0.0075 -0.0000
vn -0.7313 -0.6821 -0.0000
vn -0.0000 0.4578 -0.8891
vn -0.0000 0.3848 -0.9230
vn -0.0000 0.6791 -0.7340
vn -0.6593 0.7519 -0.0000
vn -0.0000 -0.6628 -0.7488
vn -0.0000 -0.0014 -1.0000
vn -0.0000 -0.0017 -1.0000
vn -0.9944 0.1056 -0.0000
vn 0.7313 -0.6821 -0.0000
vn -0.7488 -0.6628 -0.0000
vn 0.7488 -0.6628 -0.0000
vn -0.0003 -0.1618 -0.9868
vn -0.0003 -0.1620 -0.9868
vn -0.0004 -0.1621 -0.9868
vt 0.116148 0.565860
vt 0.116148 0.330885
vt 0.187003 0.549517
vt 0.187003 0.565860
vt 0.453281 0.503753
vt 0.519637 0.514162
vt 0.519636 0.691383
vt 0.453341 0.701851
vt 0.236742 0.991497
vt 0.190542 0.991485
vt 0.190542 0.974885
vt 0.236740 0.974884
vt 0.227314 0.950648
vt 0.175874 0.958960
vt 0.176513 0.796296
vt 0.227286 0.804692
vt 0.493284 0.035662
vt 0.544501 0.043749
vt 0.544501 0.142830
vt 0.493284 0.142830
vt 0.610799 0.054217
vt 0.610799 0.142830
vt 0.306201 0.480488
vt 0.353828 0.488021
vt 0.354287 0.717490
vt 0.306421 0.725048
vt 0.401959 0.495635
vt 0.402125 0.709937
vt 0.318316 0.991485
vt 0.286834 0.991485
vt 0.286834 0.974885
vt 0.318316 0.974885
vt 0.449148 0.313518
vt 0.447724 0.275648
vt 0.495855 0.268038
vt 0.497854 0.301206
vt 0.990678 0.798879
vt 0.990678 0.944836
vt 0.917209 0.944836
vt 0.917209 0.798879
vt 0.916678 0.573804
vt 0.916823 0.673200
vt 0.866796 0.673200
vt 0.867339 0.582642
vt 0.349308 0.991485
vt 0.349308 0.974885
vt 0.397577 0.020549
vt 0.397577 0.142830
vt 0.365362 0.142830
vt 0.365362 0.015463
vt 0.379335 0.991485
vt 0.379335 0.974885
vt 0.678470 0.588872
vt 0.650676 0.573889
vt 0.651314 0.552639
vt 0.702079 0.561185
vt 0.125071 0.967271
vt 0.125103 0.787899
vt 0.075617 0.975145
vt 0.075663 0.779638
vt 0.816002 0.673200
vt 0.815955 0.591188
vt 0.004884 0.986562
vt 0.004884 0.767924
vt 0.703562 0.643201
vt 0.697041 0.613798
vt 0.753482 0.569731
vt 0.753483 0.643201
vt 0.765208 0.673200
vt 0.765208 0.599733
vt 0.601974 0.561578
vt 0.602021 0.543802
vt 0.227405 0.549517
vt 0.227405 0.330885
vt 0.421352 0.328500
vt 0.396400 0.283751
vt 0.445444 0.142830
vt 0.445444 0.028108
vt 0.330054 0.382829
vt 0.330052 0.294219
vt 0.402779 0.353426
vt 0.396258 0.382828
vt 0.987432 0.673200
vt 0.987432 0.561941
vt 0.543522 0.472314
vt 0.543483 0.505138
vt 0.495856 0.497615
vt 0.497855 0.464447
vt 0.575479 0.255461
vt 0.575483 0.311969
vt 0.568475 0.311969
vt 0.561166 0.297094
vt 0.575480 0.510192
vt 0.561166 0.468559
vt 0.568475 0.453684
vt 0.575483 0.453684
vt 0.172551 0.991485
vt 0.172551 0.974885
vt 0.156024 0.991485
vt 0.156024 0.974885
vt 0.538672 0.728934
vt 0.556329 0.732688
vt 0.531360 0.754464
vt 0.531351 0.714059
vt 0.697041 0.672604
vt 0.753482 0.716672
vt 0.702079 0.725217
vt 0.678470 0.697531
vt 0.910613 0.412186
vt 0.983124 0.412186
vt 0.983124 0.549484
vt 0.910613 0.484131
vt 0.867339 0.763757
vt 0.815955 0.755212
vt 0.650676 0.712514
vt 0.651314 0.733763
vt 0.602022 0.742601
vt 0.601974 0.724824
vt 0.445444 0.257552
vt 0.397577 0.265110
vt 0.521929 0.991496
vt 0.521930 0.974884
vt 0.568128 0.974885
vt 0.568128 0.991485
vt 0.493284 0.249998
vt 0.544501 0.241911
vt 0.045293 0.565860
vt 0.045292 0.549517
vt 0.409363 0.991485
vt 0.409363 0.974885
vt 0.440355 0.974885
vt 0.440355 0.991485
vt 0.449149 0.452137
vt 0.447726 0.490007
vt 0.689598 0.265160
vt 0.689818 0.020601
vt 0.737683 0.028159
vt 0.737224 0.257627
vt 0.657602 0.270221
vt 0.657604 0.015515
vt 0.785522 0.035712
vt 0.785355 0.250014
vt 0.610799 0.231443
vt 0.471837 0.991485
vt 0.471837 0.974885
vt 0.107121 0.771271
vt 0.107089 0.591899
vt 0.156529 0.583638
vt 0.156576 0.779145
vt 0.916678 0.772595
vt 0.056318 0.762960
vt 0.055679 0.600296
vt 0.365362 0.270197
vt 0.227309 0.571924
vt 0.227309 0.790563
vt 0.843740 0.798879
vt 0.843740 0.944836
vt 0.836677 0.241896
vt 0.836737 0.043799
vt 0.903032 0.054266
vt 0.903033 0.231486
vt 0.765208 0.746667
vt 0.004878 0.754649
vt 0.004906 0.608692
vt 0.934244 0.119707
vt 0.934244 0.026269
vt 0.941264 0.031036
vt 0.941264 0.119707
vt 0.568475 0.382827
vt 0.575482 0.382827
vt 0.421353 0.437155
vt 0.396403 0.481905
vt 0.402780 0.412230
vt 0.330055 0.471439
vt 0.987431 0.784458
vt 0.004890 0.549517
vt 0.004890 0.330885
vt 0.586120 0.974885
vt 0.586120 0.991485
vt 0.543522 0.293339
vt 0.543483 0.260515
vt 0.602647 0.974885
vt 0.602647 0.991485
vt 0.274205 0.475427
vt 0.274207 0.730135
vt 0.910613 0.340241
vt 0.983124 0.274888
vt 0.648591 0.385700
vt 0.641544 0.385700
vt 0.641544 0.292282
vt 0.648591 0.297088
vt 0.410517 0.734878
vt 0.499192 0.734878
vt 0.547054 0.807090
vt 0.410517 0.807090
vt 0.673575 0.470406
vt 0.673575 0.281005
vt 0.679799 0.282268
vt 0.679799 0.469143
vt 0.941264 0.208377
vt 0.934244 0.213144
vt 0.647967 0.277153
vt 0.647966 0.007937
vt 0.921791 0.119707
vt 0.921791 0.026290
vt 0.928020 0.025006
vt 0.928020 0.119707
vt 0.355471 0.142830
vt 0.330048 0.142830
vt 0.330048 0.005529
vt 0.355471 0.008217
vt 0.273979 0.807090
vt 0.321841 0.734878
vt 0.914745 0.119707
vt 0.921791 0.213123
vt 0.914745 0.208317
vt 0.043563 0.023521
vt 0.024918 0.004876
vt 0.298310 0.004876
vt 0.279666 0.023521
vt 0.584873 0.382827
vt 0.584874 0.454390
vt 0.318342 0.161603
vt 0.318342 0.298299
vt 0.299697 0.279654
vt 0.299697 0.161603
vt 0.410517 0.828774
vt 0.273816 0.828774
vt 0.023532 0.161603
vt 0.004887 0.161603
vt 0.004887 0.024907
vt 0.023532 0.043552
vt 0.023532 0.279654
vt 0.089745 0.161603
vt 0.089745 0.233472
vt 0.547218 0.828774
vt 0.584882 0.517436
vt 0.928020 0.214407
vt 0.299697 0.043552
vt 0.233483 0.161603
vt 0.233483 0.089734
vt 0.233483 0.233472
vt 0.004887 0.298299
vt 0.960010 0.213137
vt 0.952990 0.208370
vt 0.952990 0.031027
vt 0.960010 0.026260
vt 0.279666 0.299685
vt 0.043563 0.299685
vt 0.298310 0.318330
vt 0.024918 0.318330
vt 0.584881 0.248216
vt 0.584874 0.311263
vt 0.914745 0.031096
vt 0.610351 0.245531
vt 0.610343 0.310883
vt 0.695309 0.835091
vt 0.695309 0.856774
vt 0.558615 0.856774
vt 0.558779 0.835091
vt 0.648591 0.474311
vt 0.641544 0.479118
vt 0.686819 0.287035
vt 0.686819 0.464376
vt 0.610343 0.454770
vt 0.610351 0.520121
vt 0.831838 0.835091
vt 0.832002 0.856774
vt 0.512431 0.840881
vt 0.512268 0.862563
vt 0.239213 0.862563
vt 0.239049 0.840880
vt 0.622522 0.280063
vt 0.622522 0.005471
vt 0.667347 0.469122
vt 0.667347 0.282289
vt 0.089745 0.089734
vt 0.972463 0.213116
vt 0.966234 0.214401
vt 0.966234 0.024997
vt 0.972463 0.026281
vt 0.747529 0.962774
vt 0.474127 0.962774
vt 0.474290 0.941090
vt 0.747365 0.941090
vt 0.979509 0.208310
vt 0.979509 0.031088
vt 0.629091 0.385700
vt 0.629091 0.479139
vt 0.622072 0.474371
vt 0.622072 0.385700
vt 0.264570 0.737713
vt 0.264569 0.468495
vt 0.355471 0.277443
vt 0.330048 0.280131
vt 0.318342 0.024907
vt 0.695309 0.762883
vt 0.606638 0.762883
vt 0.635316 0.290998
vt 0.635316 0.385700
vt 0.629091 0.292261
vt 0.708528 0.412186
vt 0.708528 0.484131
vt 0.708528 0.549484
vt 0.610342 0.382827
vt 0.239125 0.740179
vt 0.239125 0.465586
vt 0.660301 0.464316
vt 0.660301 0.287095
vt 0.699503 0.868878
vt 0.522152 0.868878
vt 0.783979 0.762883
vt 0.635316 0.480402
vt 0.622072 0.297028
vt 0.708528 0.340241
vt 0.708529 0.274888
vt 0.464409 0.934770
vt 0.287071 0.934770
vt 0.556328 0.553715
vt 0.531360 0.531939
vt 0.538672 0.557468
vt 0.531351 0.572343
s 1
f 10/1/1 20/2/2 46/3/3 41/4/4
f 11/5/5 78/6/6 2/7/6 40/8/5
f 4/9/7 42/10/8 45/11/9 23/12/10
f 33/13/11 36/14/11 37/15/11 29/16/11
f 15/17/12 40/18/12 39/19/12 16/20/12
f 40/18/12 2/21/12 9/22/12 39/19/12
f 71/23/5 12/24/13 14/25/13 70/26/5
f 12/24/13 13/27/14 15/28/14 14/25/13
f 7/29/15 5/30/16 22/31/17 21/32/18
f 5/33/19 13/34/19 12/35/19 4/36/19
f 33/37/20 29/38/20 30/39/20 34/40/20
f 27/41/21 18/42/22 19/43/23 28/44/24
f 6/45/25 7/29/15 21/32/18 25/46/26
f 70/47/12 69/48/12 8/49/12 1/50/12
f 3/51/27 6/45/25 25/46/26 24/52/27
f 5/30/16 4/9/7 23/12/10 22/31/17
f 21/53/28 22/54/29 31/55/30 36/56/31
f 36/14/11 31/57/32 28/58/32 37/15/11
f 31/57/32 32/59/33 27/60/33 28/58/32
f 38/61/34 37/62/35 28/44/24 19/43/23
f 32/59/33 35/63/36 26/64/36 27/60/33
f 24/65/37 25/66/37 33/67/37 34/68/37
f 30/69/23 29/70/23 37/62/35 38/61/34
f 22/54/29 23/71/38 32/72/39 31/55/30
f 35/73/40 46/3/3 20/2/2 26/74/40
f 7/75/41 11/76/42 13/34/19 5/33/19
f 13/27/14 11/5/5 40/8/5 15/28/14
f 16/20/12 17/77/12 14/78/12 15/17/12
f 25/66/37 21/53/28 36/56/31 33/67/37
f 121/79/43 78/80/44 6/81/44 3/82/43
f 7/75/41 6/81/44 78/80/44 11/76/42
f 20/83/23 18/42/22 27/41/21 26/84/23
f 85/85/19 100/86/19 55/87/19 50/88/19
f 43/89/45 137/90/46 41/91/47 44/92/48
f 86/93/45 87/94/49 84/95/50 155/96/51
f 45/11/9 42/10/8 44/97/52 47/98/53
f 47/98/53 44/97/52 41/99/4 46/100/3
f 98/101/54 90/102/55 73/103/56 91/104/54
f 62/105/37 72/106/37 74/107/57 59/108/58
f 144/109/59 118/110/59 151/111/59 158/112/59
f 38/61/34 19/43/23 65/113/60 77/114/61
f 24/65/37 34/68/37 72/106/37 62/105/37
f 60/115/62 67/116/63 68/117/64 61/118/65
f 57/119/12 99/120/12 69/48/12 17/77/12
f 50/121/66 61/122/67 90/123/68 85/124/69
f 58/125/12 16/20/12 39/19/12 79/126/12
f 10/1/1 84/127/70 91/128/71 20/2/2
f 52/129/72 62/130/73 59/131/74 53/132/75
f 51/133/19 50/88/19 55/87/19 56/134/19
f 100/135/76 99/136/76 57/137/77 55/138/77
f 86/139/76 48/140/76 99/136/76 100/135/76
f 55/138/77 57/137/77 58/141/78 56/142/78
f 79/126/12 39/19/12 9/22/12 49/143/12
f 51/144/79 60/145/80 61/122/67 50/121/66
f 67/146/81 65/147/81 64/148/82 68/149/82
f 64/150/83 65/113/60 19/43/23 18/42/22
f 74/151/84 77/152/84 65/147/81 67/146/81
f 3/51/27 24/52/27 62/130/73 52/129/72
f 99/120/12 48/153/12 8/49/12 69/48/12
f 68/149/82 64/148/82 63/154/85 73/155/85
f 72/156/20 34/40/20 30/39/20 66/157/20
f 16/20/12 58/125/12 57/119/12 17/77/12
f 54/158/76 79/159/76 49/160/86 105/161/86
f 30/69/23 38/61/34 77/114/61 66/162/23
f 72/163/84 66/164/84 77/152/84 74/151/84
f 59/108/58 74/107/57 67/116/63 60/115/62
f 135/165/87 109/166/88 101/167/89 124/168/89
f 155/96/51 84/95/50 10/169/90 115/170/90
f 53/132/75 59/131/74 60/145/80 51/144/79
f 90/102/55 61/118/65 68/117/64 73/103/56
f 56/142/78 58/141/78 79/159/76 54/158/76
f 53/171/41 51/133/19 56/134/19 54/172/91
f 121/79/43 3/82/43 52/173/44 105/174/44
f 20/83/23 63/175/23 64/150/83 18/42/22
f 53/171/41 54/172/91 105/174/44 52/173/44
f 73/176/92 63/177/92 20/2/2 91/128/71
f 90/123/68 98/178/93 87/179/94 85/124/69
f 42/180/19 4/36/19 12/35/19 71/181/19
f 87/94/49 86/93/45 100/86/19 85/85/19
f 98/178/93 91/182/71 84/183/70 87/179/94
f 14/78/12 17/77/12 69/48/12 70/47/12
f 43/184/5 71/23/5 70/26/5 1/185/5
f 44/92/48 42/180/19 71/181/19 43/89/45
f 137/90/46 115/170/90 10/169/90 41/91/47
f 144/109/59 143/186/59 107/187/59 118/110/59
f 9/188/95 133/189/96 110/190/97 49/191/95
f 124/192/98 101/193/98 141/194/98 123/195/98
f 114/196/99 140/197/99 113/198/100 109/199/100
f 135/165/87 124/168/89 75/200/89 81/201/88
f 86/139/101 154/202/101 152/203/101 48/140/101
f 134/204/102 106/205/103 114/206/104 129/207/105
f 122/208/106 118/209/106 107/210/106 108/211/106
f 124/192/98 123/195/98 92/212/98 75/213/98
f 121/214/107 134/204/102 80/215/103 78/216/107
f 142/217/108 145/218/108 148/219/108 147/220/108
f 115/170/109 120/221/109 157/222/110 155/96/111
f 128/223/108 97/224/108 96/225/108 119/226/108
f 130/227/112 94/228/112 92/212/112 123/195/112
f 117/229/108 130/230/108 145/231/108 142/232/108
f 93/233/113 117/229/113 131/234/113 103/235/113
f 130/227/112 123/195/112 141/194/112 145/236/112
f 155/96/111 157/222/110 154/237/114 86/93/114
f 129/207/105 135/165/87 81/201/88 88/238/104
f 147/239/115 119/226/115 132/240/115 150/241/115
f 131/234/108 132/240/108 104/242/108 103/235/108
f 134/204/102 129/207/105 88/238/104 80/215/103
f 129/207/105 114/206/104 109/166/88 135/165/87
f 117/229/108 93/233/108 94/243/108 130/230/108
f 81/244/116 75/245/117 76/246/117 83/247/116
f 103/235/118 104/242/118 96/248/118 93/249/118
f 93/249/108 96/248/108 97/250/108 94/251/108
f 137/90/119 43/89/120 112/252/120 139/253/121
f 121/214/107 105/254/107 106/205/103 134/204/102
f 139/253/122 112/252/122 111/255/122 138/256/122
f 125/257/123 128/258/123 148/259/123 146/260/123
f 9/188/95 2/261/95 82/262/97 133/189/96
f 109/199/100 113/198/100 102/263/124 101/264/124
f 157/222/122 156/265/122 153/266/122 154/237/122
f 122/208/125 108/211/125 1/50/125 8/49/125
f 125/257/123 95/267/123 97/268/123 128/258/123
f 145/269/126 141/270/126 146/271/126 148/272/126
f 154/202/127 153/273/127 151/274/127 152/203/127
f 106/275/128 110/276/128 140/197/99 114/196/99
f 149/277/129 142/217/129 147/220/129 150/241/129
f 80/278/130 88/279/131 89/280/131 82/281/130
f 94/282/132 97/283/132 95/284/132 92/285/132
f 78/286/133 80/278/130 82/281/130 2/287/133
f 136/288/134 83/289/135 76/290/136 126/291/136
f 96/225/115 104/242/115 132/240/115 119/226/115
f 43/184/137 1/185/137 108/292/137 112/293/137
f 122/208/125 8/49/125 48/153/125 152/294/125
f 122/208/106 152/294/106 151/295/106 118/209/106
f 128/223/108 119/226/108 147/239/108 148/296/108
f 126/297/138 125/257/138 146/260/138 102/298/138
f 131/234/108 149/277/108 150/241/108 132/240/108
f 140/299/139 127/300/140 136/288/134 113/301/135
f 116/302/59 144/109/59 158/112/59 156/303/59
f 151/111/59 153/304/59 156/303/59 158/112/59
f 120/221/122 116/305/122 156/265/122 157/222/122
f 112/293/141 108/292/141 107/306/141 111/307/141
f 105/308/142 49/309/142 110/276/128 106/275/128
f 75/310/143 92/285/143 95/284/143 76/311/143
f 88/279/131 81/244/116 83/247/116 89/280/131
f 126/297/138 76/312/138 95/267/138 125/257/138
f 133/189/96 82/262/97 89/313/139 127/300/140
f 120/221/122 139/253/122 138/256/122 116/305/122
f 115/170/109 137/90/119 139/253/121 120/221/109
f 89/313/139 83/289/135 136/288/134 127/300/140
f 133/189/96 127/300/140 140/299/139 110/190/97
f 142/232/113 149/277/113 131/234/113 117/229/113
f 136/288/134 126/291/136 102/314/136 113/301/135
f 107/187/59 143/186/59 138/315/59 111/316/59
f 101/317/144 102/318/144 146/271/144 141/270/144
f 116/302/59 138/315/59 143/186/59 144/109/59
f 23/71/38 45/319/145 35/320/146 32/72/39
f 45/319/145 47/321/147 46/322/147 35/320/146
